<svg width="24" height="24" xmlns="http://www.w3.org/2000/svg">

 <g>
  <title>Layer 1</title>
  <path fill="#007fff" id="svg_1" d="m11.53,2c0,2.4 1.97,4.35 4.35,4.35l1.78,0l0,1.7c0,2.4 1.94,4.34 4.34,4.35l0,-9.56a0.84,0.84 0 0 0 -0.84,-0.84l-9.63,0m-4.76,4.8c0.01,2.39 1.95,4.33 4.34,4.34l1.8,0l0,1.72c0.01,2.39 1.95,4.33 4.34,4.34l0,-9.57c-0.01,-0.46 -0.37,-0.82 -0.83,-0.83l-9.65,0m-4.77,4.8c0,2.4 1.95,4.34 4.35,4.34l1.78,0l0,1.72c0.01,2.39 1.95,4.34 4.34,4.34l0,-9.57a0.84,0.84 0 0 0 -0.84,-0.84l-9.63,0.01z" color="blue"/>
 </g>
</svg>